<svg xmlns="http://www.w3.org/2000/svg" viewBox="0 0 3394.23 601.77" height="40px" width="220px">
    <defs>
        <style>.cls-1{fill:none;}.cls-2{clip-path:url(#clip-path);}.cls-3{fill:#ff5300;}.cls-4{fill:#fff;}</style>
        <clipPath id="clip-path">
            <rect class="cls-1" width="601.77" height="601.77"/>
        </clipPath>
    </defs>
    <title>ag-logo-full</title>
    <g id="Layer_2" data-name="Layer 2">
        <g id="Layer_1-2" data-name="Layer 1">
            <g class="cls-2">
                <polygon class="cls-3" points="0 0 0 601.77 526.58 601.77 601.77 526.57 601.77 0 0 0"/>
                <g class="cls-2">
                    <path class="cls-4"
                          d="M128.43,396.44H473.31c4.5-61.17,39.58-154.47,65.4-198.33a6.48,6.48,0,0,0,.1-5.91c-1-1.67-2.66-2.35-4.16-1.47-29.22,16.91-73.55,37-108.53,50.84a4.68,4.68,0,0,0-2.46,3.87,5.66,5.66,0,0,0,1.51,4.69,48,48,0,0,1,16.41,36.27,48.64,48.64,0,1,1-77.16-39.21,5,5,0,0,0,1.85-3.95,5.44,5.44,0,0,0-1.5-4.15c-22.77-21.82-49.29-57.8-61-81.94a3.36,3.36,0,0,0-2.9-2.1,3.29,3.29,0,0,0-2.85,2.1c-11.76,24.14-38.23,60.12-61,81.94a5.84,5.84,0,0,0,.35,8.1,48.2,48.2,0,0,1,20.21,39.21,48.69,48.69,0,0,1-97.38,0,48,48,0,0,1,16.42-36.27,5.7,5.7,0,0,0,1.6-4.69,4.93,4.93,0,0,0-2.5-3.87c-35-13.82-79.37-33.93-108.59-50.84-1.5-.88-3.15-.2-4.1,1.47a6.33,6.33,0,0,0,.1,5.91C88.9,242,123.93,335.27,128.43,396.44"/>
                </g>
            </g>
            <path d="M920.72,395.73l-15.25-50.07H828.78l-15.25,50.07h-48l74.24-211.21h54.53l74.52,211.21Zm-25.9-87.48q-21.15-68-23.81-77c-1.78-5.94-3-10.65-3.81-14.1q-4.76,18.42-27.2,91.07Z"/>
            <path
                d="M1119.41,337.32q0,28.49-20.5,44.89t-57.05,16.4q-33.66,0-59.56-12.66V344.51q21.29,9.5,36,13.38a106.62,106.62,0,0,0,27,3.89q14.68,0,22.52-5.61t7.84-16.69a18.43,18.43,0,0,0-3.45-11,38.59,38.59,0,0,0-10.14-9.28q-6.69-4.45-27.27-14.24-19.27-9.07-28.92-17.41a65.27,65.27,0,0,1-15.39-19.43q-5.76-11.07-5.76-25.89,0-27.91,18.92-43.89t52.3-16a123.39,123.39,0,0,1,31.29,3.89,215,215,0,0,1,31.15,10.93L1104,231.86a210,210,0,0,0-27.84-9.64,89.8,89.8,0,0,0-21.66-2.74q-12.66,0-19.42,5.9a19.47,19.47,0,0,0-6.76,15.4,19,19,0,0,0,2.73,10.28,29.83,29.83,0,0,0,8.71,8.49q6,4.11,28.27,14.75,29.49,14.1,40.43,28.27T1119.41,337.32Z"/>
            <path d="M1238.68,395.73h-44.6V222.5H1137V185.38H1295.8V222.5h-57.12Z"/>
            <path
                d="M1499.39,185.38V321.49q0,23.31-10.43,40.86t-30.15,26.91q-19.71,9.35-46.61,9.35-40.58,0-63-20.79t-22.44-56.9V185.38h44.45V314.15q0,24.32,9.79,35.69t32.37,11.36q21.87,0,31.72-11.44t9.86-35.89V185.38Z"/>
            <path d="M1632,395.73h-44.6V222.5h-57.12V185.38h158.84V222.5H1632Z"/>
            <path d="M1842.68,395.73H1721.53V185.38h121.15v36.55h-76.55v46.18h71.22v36.55h-71.22V358.9h76.55Z"/>
            <path
                d="M2043,277.61h83.45V386.67a236.27,236.27,0,0,1-38.2,9.28,249.45,249.45,0,0,1-36.62,2.66q-47.62,0-72.72-28t-25.11-80.36q0-50.92,29.13-79.42t80.79-28.49a156.36,156.36,0,0,1,62.44,12.95L2111.29,231a105.87,105.87,0,0,0-47.91-11.51q-28.92,0-46.33,19.43t-17.41,52.22q0,34.25,14,52.3t40.79,18.06a144.31,144.31,0,0,0,28.35-2.88V314.73H2043Z"/>
            <path
                d="M2221.07,315v80.71h-44.6V185.38h61.29q42.87,0,63.45,15.62t20.57,47.4a55.79,55.79,0,0,1-10.21,33q-10.21,14.46-28.92,22.66,47.47,70.94,61.86,91.65H2295L2244.81,315Zm0-36.26h14.39q21.15,0,31.22-7.05t10.07-22.16q0-15-10.29-21.29t-31.87-6.33h-13.52Z"/>
            <path d="M2499.76,395.73l-15.25-50.07h-76.69l-15.25,50.07h-48.06l74.24-211.21h54.53l74.53,211.21Zm-25.9-87.48q-21.15-68-23.81-77c-1.78-5.94-3.05-10.65-3.82-14.1q-4.74,18.42-27.19,91.07Z"/>
            <path
                d="M2719.6,251q0,34-21.22,51.94t-60.36,18h-19.13v74.81h-44.61V185.38h67.19q38.28,0,58.2,16.48T2719.6,251Zm-100.71,33.38h14.67q20.58,0,30.79-8.13t10.22-23.67q0-15.67-8.56-23.16t-26.84-7.48h-20.28Z"/>
            <path d="M2931.67,395.73h-44.46V305h-83.3v90.78h-44.6V185.38h44.6v82.45h83.3V185.38h44.46Z"/>
            <path d="M2984.76,395.73V185.38h44.6V395.73Z"/>
            <path
                d="M3171.66,219.48q-25.18,0-39,18.92t-13.81,52.73q0,70.37,52.8,70.36,22.15,0,53.66-11.08v37.41q-25.89,10.79-57.83,10.79-45.9,0-70.22-27.84T3073,290.85q0-32.81,11.94-57.48t34.31-37.84q22.38-13.17,52.45-13.17,30.65,0,61.58,14.82l-14.39,36.26a238.52,238.52,0,0,0-23.74-9.78A70.62,70.62,0,0,0,3171.66,219.48Z"/>
            <path
                d="M3394.23,337.32q0,28.49-20.5,44.89t-57.05,16.4q-33.66,0-59.56-12.66V344.51q21.28,9.5,36,13.38a106.63,106.63,0,0,0,27,3.89q14.67,0,22.51-5.61t7.85-16.69a18.44,18.44,0,0,0-3.46-11,38.59,38.59,0,0,0-10.14-9.28q-6.69-4.45-27.27-14.24-19.27-9.07-28.91-17.41a65.3,65.3,0,0,1-15.4-19.43q-5.76-11.07-5.75-25.89,0-27.91,18.91-43.89t52.3-16a123.53,123.53,0,0,1,31.3,3.89,215.45,215.45,0,0,1,31.15,10.93l-14.39,34.68a209.06,209.06,0,0,0-27.84-9.64,89.78,89.78,0,0,0-21.65-2.74q-12.67,0-19.43,5.9a19.47,19.47,0,0,0-6.76,15.4,19,19,0,0,0,2.73,10.28,30,30,0,0,0,8.71,8.49q6,4.11,28.27,14.75,29.49,14.1,40.43,28.27T3394.23,337.32Z"/>
            </g>
    </g>
</svg>
