<svg width="32" height="32" viewBox="0 0 32 32" fill="none" xmlns="http://www.w3.org/2000/svg">
<path d="M21.25 24C21.6656 24 22 23.6656 22 23.25C22 22.8344 21.6656 22.5 21.25 22.5H10.75C10.3344 22.5 10 22.8344 10 23.25C10 23.6656 10.3344 24 10.75 24H21.25ZM15.4688 19.7812C15.7625 20.075 16.2375 20.075 16.5281 19.7812L20.7812 15.5312C21.075 15.2375 21.075 14.7625 20.7812 14.4719C20.4875 14.1813 20.0125 14.1781 19.7219 14.4719L16.7531 17.4406V8.75C16.7531 8.33437 16.4188 8 16.0031 8C15.5875 8 15.2531 8.33437 15.2531 8.75V17.4406L12.2844 14.4719C11.9906 14.1781 11.5156 14.1781 11.225 14.4719C10.9344 14.7656 10.9313 15.2406 11.225 15.5312L15.4688 19.7812Z" fill="#FF5300"/>
</svg>
