<svg width="20" height="20" viewBox="0 0 20 20" fill="none" xmlns="http://www.w3.org/2000/svg">
<path d="M3.25 3.5C2.83437 3.5 2.5 3.83437 2.5 4.25V5.75C2.5 6.16563 2.83437 6.5 3.25 6.5H4.75C5.16563 6.5 5.5 6.16563 5.5 5.75V4.25C5.5 3.83437 5.16563 3.5 4.75 3.5H3.25ZM7.75 4.25C7.33437 4.25 7 4.58438 7 5C7 5.41562 7.33437 5.75 7.75 5.75H17.25C17.6656 5.75 18 5.41562 18 5C18 4.58438 17.6656 4.25 17.25 4.25H7.75ZM7.75 9.25C7.33437 9.25 7 9.58437 7 10C7 10.4156 7.33437 10.75 7.75 10.75H17.25C17.6656 10.75 18 10.4156 18 10C18 9.58437 17.6656 9.25 17.25 9.25H7.75ZM7.75 14.25C7.33437 14.25 7 14.5844 7 15C7 15.4156 7.33437 15.75 7.75 15.75H17.25C17.6656 15.75 18 15.4156 18 15C18 14.5844 17.6656 14.25 17.25 14.25H7.75ZM2.5 9.25V10.75C2.5 11.1656 2.83437 11.5 3.25 11.5H4.75C5.16563 11.5 5.5 11.1656 5.5 10.75V9.25C5.5 8.83437 5.16563 8.5 4.75 8.5H3.25C2.83437 8.5 2.5 8.83437 2.5 9.25ZM3.25 13.5C2.83437 13.5 2.5 13.8344 2.5 14.25V15.75C2.5 16.1656 2.83437 16.5 3.25 16.5H4.75C5.16563 16.5 5.5 16.1656 5.5 15.75V14.25C5.5 13.8344 5.16563 13.5 4.75 13.5H3.25Z" fill="#737373"/>
</svg>
