<svg width="15" height="15" viewBox="0 0 15 15" fill="none" xmlns="http://www.w3.org/2000/svg">
<path d="M1.60317 9.79219C1.69927 9.45 1.87974 9.13828 2.13286 8.88516L9.02349 1.99453C9.33755 1.67813 9.7688 1.5 10.2188 1.5C10.6688 1.5 11.1 1.67813 11.4165 1.99688L12.2532 2.83359C12.5719 3.15 12.75 3.58125 12.75 4.03125C12.75 4.48125 12.5719 4.9125 12.2532 5.22891L5.36255 12.1195C5.11177 12.3703 4.79771 12.5531 4.45552 12.6492L1.46255 13.4789C1.26802 13.5328 1.05708 13.4789 0.914112 13.3336C0.771143 13.1883 0.714893 12.9797 0.768799 12.7852L1.60317 9.79219ZM9.81567 2.79141L8.57583 4.03125L10.2188 5.67422L11.4586 4.43437C11.5665 4.32656 11.625 4.18359 11.625 4.03125C11.625 3.87891 11.5641 3.73594 11.4586 3.62813L10.6219 2.79141C10.5141 2.68594 10.3688 2.625 10.2188 2.625C10.0688 2.625 9.92349 2.68594 9.81567 2.79141ZM7.7813 4.82578L3.32583 9.28125L4.9688 10.9242L9.42427 6.46875L7.7813 4.82578ZM2.12114 12.1289L4.04771 11.5945L2.65552 10.2023L2.12114 12.1289ZM7.31255 12.375H13.6875C13.9993 12.375 14.25 12.6258 14.25 12.9375C14.25 13.2492 13.9993 13.5 13.6875 13.5H7.31255C7.00083 13.5 6.75005 13.2492 6.75005 12.9375C6.75005 12.6258 7.00083 12.375 7.31255 12.375Z" fill="#A1A1A1"/>
</svg>
