<svg width="32" height="32" viewBox="0 0 32 32" fill="none" xmlns="http://www.w3.org/2000/svg">
<path d="M16 0C24.8366 0 32 7.16344 32 16C32 24.8366 24.8366 32 16 32C7.16344 32 0 24.8366 0 16C0 7.16344 7.16344 0 16 0ZM14.5 8C10.9094 8 8 10.9094 8 14.5C8 18.0906 10.9094 21 14.5 21C16.025 21 17.4279 20.4748 18.5342 19.5967L22.7188 23.7812C23.0125 24.075 23.4877 24.075 23.7783 23.7812C24.0688 23.4875 24.072 23.0123 23.7783 22.7217L19.5967 18.5342C20.4748 17.4279 21 16.025 21 14.5C21 10.9094 18.0906 8 14.5 8ZM14.5 9.5C15.8261 9.5 17.0975 10.0272 18.0352 10.9648C18.9728 11.9025 19.5 13.1739 19.5 14.5C19.5 15.8261 18.9728 17.0975 18.0352 18.0352C17.0975 18.9728 15.8261 19.5 14.5 19.5C13.1739 19.5 11.9025 18.9728 10.9648 18.0352C10.0272 17.0975 9.5 15.8261 9.5 14.5C9.5 13.1739 10.0272 11.9025 10.9648 10.9648C11.9025 10.0272 13.1739 9.5 14.5 9.5ZM14.5 11.5C14.0844 11.5 13.75 11.8344 13.75 12.25V13.75H12.25C11.8344 13.75 11.5 14.0844 11.5 14.5C11.5 14.9156 11.8344 15.25 12.25 15.25H13.75V16.75C13.75 17.1656 14.0844 17.5 14.5 17.5C14.9156 17.5 15.25 17.1656 15.25 16.75V15.25H16.75C17.1656 15.25 17.5 14.9156 17.5 14.5C17.5 14.0844 17.1656 13.75 16.75 13.75H15.25V12.25C15.25 11.8344 14.9156 11.5 14.5 11.5Z" fill="white"/>
</svg>
