<svg width="50" height="50" viewBox="0 0 50 50" fill="none" xmlns="http://www.w3.org/2000/svg">
<g clip-path="url(#clip0_1_3292)">
<path d="M35.5 25C35.5 25.2955 35.4418 25.5881 35.3287 25.861C35.2157 26.134 35.0499 26.3821 34.841 26.591C34.6321 26.7999 34.384 26.9657 34.111 27.0787C33.8381 27.1918 33.5455 27.25 33.25 27.25C32.9545 27.25 32.6619 27.1918 32.389 27.0787C32.116 26.9657 31.8679 26.7999 31.659 26.591C31.4501 26.3821 31.2843 26.134 31.1713 25.861C31.0582 25.5881 31 25.2955 31 25C31 24.7045 31.0582 24.4119 31.1713 24.139C31.2843 23.866 31.4501 23.6179 31.659 23.409C31.8679 23.2001 32.116 23.0343 32.389 22.9213C32.6619 22.8082 32.9545 22.75 33.25 22.75C33.5455 22.75 33.8381 22.8082 34.111 22.9213C34.384 23.0343 34.6321 23.2001 34.841 23.409C35.0499 23.6179 35.2157 23.866 35.3287 24.139C35.4418 24.4119 35.5 24.7045 35.5 25ZM27.25 25C27.25 25.2955 27.1918 25.5881 27.0787 25.861C26.9657 26.134 26.7999 26.3821 26.591 26.591C26.3821 26.7999 26.134 26.9657 25.861 27.0787C25.5881 27.1918 25.2955 27.25 25 27.25C24.7045 27.25 24.4119 27.1918 24.139 27.0787C23.866 26.9657 23.6179 26.7999 23.409 26.591C23.2001 26.3821 23.0343 26.134 22.9213 25.861C22.8082 25.5881 22.75 25.2955 22.75 25C22.75 24.7045 22.8082 24.4119 22.9213 24.139C23.0343 23.866 23.2001 23.6179 23.409 23.409C23.6179 23.2001 23.866 23.0343 24.139 22.9213C24.4119 22.8082 24.7045 22.75 25 22.75C25.2955 22.75 25.5881 22.8082 25.861 22.9213C26.134 23.0343 26.3821 23.2001 26.591 23.409C26.7999 23.6179 26.9657 23.866 27.0787 24.139C27.1918 24.4119 27.25 24.7045 27.25 25ZM16.75 27.25C16.1533 27.25 15.581 27.0129 15.159 26.591C14.7371 26.169 14.5 25.5967 14.5 25C14.5 24.4033 14.7371 23.831 15.159 23.409C15.581 22.9871 16.1533 22.75 16.75 22.75C17.3467 22.75 17.919 22.9871 18.341 23.409C18.7629 23.831 19 24.4033 19 25C19 25.5967 18.7629 26.169 18.341 26.591C17.919 27.0129 17.3467 27.25 16.75 27.25Z" fill="#A1A1A1"/>
</g>
<defs>
<clipPath id="clip0_1_3292">
<rect width="21" height="24" fill="white" transform="translate(14.5 13)"/>
</clipPath>
</defs>
</svg>
